<?xml version="1.0" encoding="UTF-8"?>
<svg width="120" height="40" viewBox="0 0 120 40" fill="none" xmlns="http://www.w3.org/2000/svg">
  <!-- Logo circle -->
  <circle cx="20" cy="20" r="16" fill="#4F46E5"/>
  <!-- "P" letter -->
  <path d="M15 12H25C26.1046 12 27 12.8954 27 14V18C27 19.1046 26.1046 20 25 20H18V28" stroke="white" stroke-width="3" stroke-linecap="round"/>
  <!-- Text "The Physc" -->
  <path d="M37 15H40V16H38.5V25H37V15Z" fill="#333333"/>
  <path d="M41.5 15H46.5V16H44V25H43V16H41.5V15Z" fill="#333333"/>
  <path d="M48 15H51.5C52.9 15 54 15.9 54 17.25C54 18.3 53.4 19.1 52.5 19.4L54.5 25H53L51.3 19.5H49V25H48V15ZM51.3 18.5C52.2 18.5 53 18.1 53 17.25C53 16.4 52.2 16 51.3 16H49V18.5H51.3Z" fill="#333333"/>
  <path d="M57 15H60C61.7 15 63 16.3 63 18V22C63 23.7 61.7 25 60 25H57V15ZM58 16V24H60C61.1 24 62 23.1 62 22V18C62 16.9 61.1 16 60 16H58Z" fill="#333333"/>
  <path d="M66 15H67V23H71V24H66V15Z" fill="#333333"/>
  <path d="M74 18.5C74 16.6 75.6 15 77.5 15C79.4 15 81 16.6 81 18.5V21.5C81 23.4 79.4 25 77.5 25C75.6 25 74 23.4 74 21.5V18.5ZM75 21.5C75 22.9 76.1 24 77.5 24C78.9 24 80 22.9 80 21.5V18.5C80 17.1 78.9 16 77.5 16C76.1 16 75 17.1 75 18.5V21.5Z" fill="#333333"/>
  <path d="M84 15H85V19.5L89.2 15H90.5L86.8 18.8L91 25H89.7L86.2 19.7L85 21V25H84V15Z" fill="#333333"/>
  <path d="M93 15H97C98.7 15 100 16.3 100 18V22C100 23.7 98.7 25 97 25H93V15ZM94 16V24H97C98.1 24 99 23.1 99 22V18C99 16.9 98.1 16 97 16H94Z" fill="#333333"/>
  <path d="M103 20C103 17.2 105.2 15 108 15C110 15 111.7 16.2 112.3 18H111.2C110.7 16.8 109.5 16 108 16C105.8 16 104 17.8 104 20C104 22.2 105.8 24 108 24C109.5 24 110.7 23.2 111.2 22H112.3C111.7 23.8 110 25 108 25C105.2 25 103 22.8 103 20Z" fill="#333333"/>
</svg>
